<?xml version="1.0" encoding="UTF-8" standalone="no"?>
<!-- Created with Inkscape (http://www.inkscape.org/) -->

<svg
   width="486.19501mm"
   height="125.77773mm"
   viewBox="0 0 486.19528 125.778"
   version="1.1"
   id="svg21"
   xml:space="preserve"
   inkscape:version="1.2.2 (1:1.2.2+202305151915+b0a8486541)"
   sodipodi:docname="Imagotipo blanco sobre fondo trasparente.svg"
   inkscape:export-filename="Logo-my batch 5.png"
   inkscape:export-xdpi="96"
   inkscape:export-ydpi="96"
   xmlns:inkscape="http://www.inkscape.org/namespaces/inkscape"
   xmlns:sodipodi="http://sodipodi.sourceforge.net/DTD/sodipodi-0.dtd"
   xmlns="http://www.w3.org/2000/svg"
   xmlns:svg="http://www.w3.org/2000/svg"><sodipodi:namedview
     id="namedview23"
     pagecolor="#ffffff"
     bordercolor="#000000"
     borderopacity="0.25"
     inkscape:showpageshadow="2"
     inkscape:pageopacity="0.0"
     inkscape:pagecheckerboard="0"
     inkscape:deskcolor="#d1d1d1"
     inkscape:document-units="mm"
     showgrid="false"
     inkscape:zoom="0.3395313"
     inkscape:cx="843.81028"
     inkscape:cy="270.96176"
     inkscape:window-width="1366"
     inkscape:window-height="710"
     inkscape:window-x="0"
     inkscape:window-y="0"
     inkscape:window-maximized="1"
     inkscape:current-layer="layer1" /><defs
     id="defs18"><rect
       x="550.57507"
       y="90.926369"
       width="1841.9164"
       height="512.51849"
       id="rect357" /><rect
       x="550.57507"
       y="90.926369"
       width="1841.9164"
       height="512.51849"
       id="rect357-3" /><rect
       x="550.57507"
       y="90.926369"
       width="1841.9164"
       height="512.51849"
       id="rect357-3-7" /><rect
       x="190.80185"
       y="4.018558"
       width="17.823553"
       height="17.087212"
       id="rect1378" /></defs><g
     inkscape:label="Capa 1"
     inkscape:groupmode="layer"
     id="layer1"
     transform="translate(-39.761689,-73.187786)"><path
       id="path1330"
       style="opacity:0.991;fill:#ffffff;fill-opacity:1;stroke-width:0.61307;stroke-linecap:round;stroke-opacity:0.996078"
       d="m 516.5603,74.0155 a 9.3968712,9.3968712 0 0 0 -9.39707,9.397065 9.3968712,9.3968712 0 0 0 9.39707,9.397064 9.3968712,9.3968712 0 0 0 9.39706,-9.397064 9.3968712,9.3968712 0 0 0 -9.39706,-9.397065 z m 0,2.567452 a 6.8295155,6.8295155 0 0 1 6.82961,6.829613 6.8295155,6.8295155 0 0 1 -6.82961,6.829613 6.8295155,6.8295155 0 0 1 -6.82962,-6.829613 6.8295155,6.8295155 0 0 1 6.82962,-6.829613 z"
       inkscape:export-filename="Logo simbolo.png"
       inkscape:export-xdpi="96"
       inkscape:export-ydpi="96" /><text
       xml:space="preserve"
       id="text1376"
       style="font-size:10.5833px;line-height:1.76389px;font-family:JuneBug;-inkscape-font-specification:JuneBug;letter-spacing:0px;word-spacing:0px;white-space:pre;shape-inside:url(#rect1378);display:inline;opacity:0.991;fill:#ffffff;fill-opacity:1"
       transform="matrix(1.0268478,0,0,0.93978955,316.0607,79.564234)"><tspan
         x="190.80273"
         y="7.6506537"
         id="tspan746"><tspan
           style="font-weight:bold;font-family:sans-serif;-inkscape-font-specification:'sans-serif Bold'"
           id="tspan744">R</tspan></tspan></text><rect
       style="fill:#ffffff;fill-opacity:1;stroke-width:0.175284"
       id="rect247-9-3-7"
       width="84.236862"
       height="83.958527"
       x="63.045044"
       y="94.097519"
       ry="11.281067"
       inkscape:export-filename="Logo simbolo"
       inkscape:export-xdpi="96"
       inkscape:export-ydpi="96" /><path
       id="rect247-9-3-7-6"
       style="fill:#1a1a1a;stroke-width:0.165585"
       d="m 102.13322,102.06323 -34.185065,28.6275 33.732685,42.54873 7.54233,0.55789 -34.323964,-42.71549 30.354944,-25.66594 z"
       sodipodi:nodetypes="ccccccc" /><path
       id="rect247-9-3-7-0"
       style="fill:#1a1a1a;stroke-width:0.165585"
       d="M 114.5535,103.40547 80.313626,131.5843 114.3021,173.79735 h 18.01946 c 5.90389,0 10.65697,-4.75267 10.65697,-10.65658 v -25.09816 z"
       sodipodi:nodetypes="cccsscc" /><path
       d="m 198.69416,92.459996 q 3.18207,0 5.97605,1.241779 2.79401,1.164167 4.88951,3.259669 2.09551,2.017891 3.33728,4.811896 1.2418,2.794 1.2418,5.97606 v 33.60565 h -9.93426 v -34.22654 q -0.31043,-2.01789 -1.86264,-3.41489 -1.55223,-1.397 -3.64774,-1.397 -2.17311,0 -3.72533,1.47461 -1.55223,1.397 -1.78506,3.4925 v 34.07132 h -9.93424 v -33.52804 q 0,-2.25072 -1.62983,-3.88056 -1.62983,-1.62983 -3.88056,-1.62983 -2.0955,0 -3.64773,1.31939 -1.47461,1.31939 -1.86267,3.33728 v 34.38176 h -9.93423 V 107.7494 q 0,-3.18206 1.24178,-5.97606 1.24178,-2.794005 3.33728,-4.811896 2.09551,-2.095502 4.88951,-3.259669 2.794,-1.241779 5.97606,-1.241779 3.02684,0 5.74323,1.086556 2.71639,1.086556 4.73428,3.026837 2.0955,-1.940281 4.73428,-3.026837 2.71639,-1.086556 5.74323,-1.086556 z"
       style="font-size:293.333px;font-family:Optien;-inkscape-font-specification:Optien;text-align:center;text-anchor:middle;white-space:pre;fill:#ffffff;stroke-width:0.264584"
       id="path2178" /><path
       d="m 246.89061,92.459996 h 9.93422 v 13.116294 q 0,3.33728 -1.08657,6.36411 -1.00893,2.94923 -2.8716,5.43279 -1.86267,2.40595 -4.42385,4.191 -2.56117,1.78506 -5.58801,2.63878 v 17.15208 h -9.93422 v -16.91924 q -3.18205,-0.77612 -5.97606,-2.48356 -2.7164,-1.78506 -4.73427,-4.26862 -1.9403,-2.48356 -3.10447,-5.588 -1.08654,-3.10445 -1.08654,-6.51934 V 92.459996 h 9.93422 v 13.116294 q 0,1.94028 0.6985,3.72533 0.77611,1.70745 2.01791,3.02684 1.31937,1.24178 3.02681,2.01789 1.78507,0.6985 3.72534,0.6985 1.9403,0 3.64774,-0.6985 1.78504,-0.77611 3.02684,-2.01789 1.31937,-1.31939 2.01788,-3.02684 0.77613,-1.78505 0.77613,-3.72533 z"
       style="font-size:293.333px;font-family:Optien;-inkscape-font-specification:Optien;text-align:center;text-anchor:middle;white-space:pre;fill:#ffffff;stroke-width:0.264584"
       id="path2180" /><path
       id="path2182-3"
       style="font-size:293.333px;font-family:Optien;-inkscape-font-specification:Optien;text-align:center;text-anchor:middle;white-space:pre;fill:#ffffff;stroke-width:0.19624"
       d="m 88.13865,133.0217 4.42969,5.44963 9.54087,11.73767 5.55761,-4.51743 -9.54089,-11.73768 12.26917,-9.97291 c 0.80595,-0.40782 1.66486,-0.5374 2.57703,-0.38862 0.91217,0.1487 1.67082,0.59532 2.27595,1.33979 0.65355,0.80405 0.92766,1.71892 0.82176,2.74461 -0.10595,1.02573 -0.54905,1.88014 -1.32889,2.56345 l -7.02506,5.71027 4.46595,5.49423 7.24843,-5.89182 c 0.82267,-0.56977 1.71708,-0.7775 2.68322,-0.62318 0.96615,0.15428 1.764,0.6188 2.39334,1.39305 0.60514,0.74448 0.88456,1.60525 0.83824,2.58256 -0.0409,0.92331 -0.37029,1.73507 -0.98817,2.43514 l -22.61018,18.37849 4.39318,5.4047 22.47633,-18.26968 c 1.1614,-0.94403 2.05196,-2.03843 2.67159,-3.2839 0.64938,-1.26966 1.04364,-2.57948 1.18297,-3.92909 0.14495,-1.4036 0.0266,-2.76633 -0.35529,-4.08791 -0.37634,-1.37558 -1.03627,-2.6439 -1.98028,-3.8053 -0.91981,-1.13158 -1.97579,-2.0046 -3.1673,-2.61865 -1.18591,-0.66804 -2.42379,-1.09563 -3.71385,-1.28336 0.0798,-1.30121 -0.074,-2.58579 -0.46151,-3.85339 -0.38187,-1.32159 -1.03255,-2.54821 -1.95236,-3.67982 -0.94402,-1.16137 -2.03896,-2.05199 -3.28442,-2.6716 -1.2399,-0.67362 -2.54971,-1.06786 -3.9291,-1.18299 -1.37382,-0.16914 -2.74837,-0.0652 -4.12395,0.31098 -1.34577,0.35213 -2.59928,0.99999 -3.76066,1.94401 l -12.045823,9.79134 z"
       sodipodi:nodetypes="ccccccsssccccssccccscscscccscccscc" /><path
       id="path2182-3-3"
       style="font-size:293.333px;font-family:Optien;-inkscape-font-specification:Optien;text-align:center;text-anchor:middle;white-space:pre;fill:#ffffff;stroke-width:0.234124"
       d="m 261.23463,107.77518 5.33677,6.43843 11.49456,13.86743 6.69564,-5.3371 -11.49459,-13.86742 14.78155,-11.78245 c 0.97098,-0.481819 2.00577,-0.63491 3.10473,-0.459136 1.09895,0.175682 2.01295,0.703338 2.74199,1.582885 0.78739,0.949942 1.11763,2.030821 0.99003,3.242611 -0.12764,1.21184 -0.66148,2.22128 -1.60101,3.02857 l -8.46358,6.74638 5.38044,6.49113 8.73271,-6.96087 c 0.99113,-0.67314 2.06869,-0.91857 3.23267,-0.73624 1.16398,0.18226 2.12521,0.73106 2.88341,1.6458 0.72907,0.87957 1.0657,1.89652 1.0099,3.05115 -0.0492,1.09085 -0.44612,2.0499 -1.19051,2.87699 l -27.2401,21.71318 5.29278,6.38536 27.07883,-21.58463 c 1.39922,-1.11532 2.47214,-2.40829 3.21865,-3.87974 0.78235,-1.50004 1.25734,-3.04753 1.42521,-4.64201 0.17463,-1.65828 0.032,-3.26827 -0.42805,-4.82964 -0.45339,-1.62518 -1.24846,-3.12363 -2.38578,-4.49575 -1.10817,-1.3369 -2.38039,-2.36832 -3.81588,-3.0938 -1.42874,-0.78925 -2.9201,-1.29442 -4.47433,-1.51622 0.0962,-1.53731 -0.0892,-3.054962 -0.55602,-4.552565 -0.46006,-1.561382 -1.24398,-3.010571 -2.35215,-4.347513 -1.13732,-1.372095 -2.45648,-2.424314 -3.95697,-3.156349 -1.49379,-0.795846 -3.07182,-1.261618 -4.73366,-1.397639 -1.65515,-0.199828 -3.31116,-0.07703 -4.96842,0.367406 -1.62134,0.416023 -3.13153,1.181434 -4.53073,2.296742 L 267.93027,102.4381 Z"
       sodipodi:nodetypes="ccccccsssccccssccccscscscccscccscc" /><path
       d="m 341.68431,92.459996 q 4.03577,0 7.52828,1.552224 3.57011,1.474613 6.20889,4.113393 2.63877,2.638777 4.1134,6.208897 1.55221,3.4925 1.55221,7.52828 v 29.49226 h -9.93423 v -9.77902 h -18.93714 v 9.77902 h -9.93422 v -29.49226 q 0,-4.03578 1.4746,-7.52828 1.55224,-3.57012 4.19101,-6.208897 2.63878,-2.63878 6.13128,-4.113393 3.57014,-1.552224 7.60592,-1.552224 z m 9.46855,19.402794 q 0,-1.94028 -0.7761,-3.64772 -0.6985,-1.78506 -2.0179,-3.02684 -1.24177,-1.31939 -3.02684,-2.01789 -1.70744,-0.77611 -3.64771,-0.77611 -1.9403,0 -3.72534,0.77611 -1.70744,0.6985 -3.02684,2.01789 -1.24178,1.24178 -2.01791,3.02684 -0.6985,1.70744 -0.6985,3.64772 v 9.77901 h 18.93714 z"
       style="font-size:293.333px;font-family:Optien;-inkscape-font-specification:Optien;text-align:center;text-anchor:middle;white-space:pre;fill:#ffffff;stroke-width:0.264584"
       id="path2184" /><path
       d="m 406.17912,102.39423 h -15.59984 v 38.96082 h -9.93423 v -38.96082 h -15.67747 v -9.934234 h 41.21154 z"
       style="font-size:293.333px;font-family:Optien;-inkscape-font-specification:Optien;text-align:center;text-anchor:middle;white-space:pre;fill:#ffffff;stroke-width:0.264584"
       id="path2186" /><path
       d="m 434.58479,131.49842 q 4.81189,0 8.45962,-2.71639 3.72532,-2.794 5.27755,-6.985 l 9.23573,3.25967 q -1.24177,3.57011 -3.49251,6.59695 -2.25071,2.94922 -5.27755,5.12234 -3.02684,2.17311 -6.67455,3.41489 -3.64774,1.16417 -7.60591,1.16417 -5.04472,0 -9.54617,-1.86267 -4.42384,-1.94028 -7.76111,-5.27756 -3.33731,-3.33728 -5.27758,-7.76112 -1.86267,-4.50145 -1.86267,-9.54618 0,-5.04473 1.86267,-9.46856 1.94027,-4.50145 5.27758,-7.761123 3.33727,-3.337282 7.76111,-5.277563 4.50145,-1.940278 9.54617,-1.940278 3.95817,0 7.45068,1.164166 3.57011,1.16417 6.51934,3.259671 3.02684,2.095502 5.27755,4.967117 2.25074,2.87161 3.57011,6.36412 l -9.15812,3.33728 q -1.55221,-4.11339 -5.27755,-6.67456 -3.64774,-2.56117 -8.30439,-2.56117 -3.02684,0 -5.66561,1.16417 -2.6388,1.16416 -4.65668,3.18205 -1.9403,1.94028 -3.10444,4.57906 -1.08657,2.63878 -1.08657,5.66562 0,3.02684 1.08657,5.66562 1.16414,2.63878 3.10444,4.65667 2.01788,1.94028 4.65668,3.10445 2.63877,1.16416 5.66561,1.16416 z"
       style="font-size:293.333px;font-family:Optien;-inkscape-font-specification:Optien;text-align:center;text-anchor:middle;white-space:pre;fill:#ffffff;stroke-width:0.264584"
       id="path2188" /><path
       d="m 491.00802,92.459996 h 9.93423 v 48.895054 h -9.93423 v -17.69536 h -15.67746 v -9.93423 h 15.67746 z m -29.56987,0 h 9.93426 v 48.895054 h -9.93426 z"
       style="font-size:293.333px;font-family:Optien;-inkscape-font-specification:Optien;text-align:center;text-anchor:middle;white-space:pre;fill:#ffffff;stroke-width:0.264584"
       id="path2190" /><path
       d="m 177.57151,157.94755 v 3.62833 h -8.63603 q -0.74965,0.11994 -1.25942,0.68968 -0.47978,0.53975 -0.47978,1.28941 0,0.77964 0.50977,1.34937 0.50976,0.56974 1.2894,0.62971 h 8.57606 v 3.68831 h -8.42612 q -0.80963,0.03 -1.37937,0.59972 -0.56974,0.56974 -0.56974,1.37937 0,0.74965 0.47978,1.2894 0.47978,0.53975 1.16946,0.68969 h 8.72599 v 3.65831 h -8.57606 q -1.16946,0 -2.18899,-0.44979 -0.98954,-0.44979 -1.76918,-1.19945 -0.74966,-0.77964 -1.19945,-1.76918 -0.41981,-1.01954 -0.41981,-2.189 0,-1.13947 0.38982,-2.09903 0.41981,-0.98955 1.10949,-1.7392 -0.68968,-0.74966 -1.10949,-1.70921 -0.38982,-0.98955 -0.38982,-2.12902 0,-1.16947 0.41981,-2.15901 0.44979,-1.01953 1.19945,-1.76919 0.77964,-0.77964 1.76918,-1.22943 1.01953,-0.44979 2.18899,-0.44979 z"
       id="path309"
       style="font-size:29.9862px;font-family:Optien;-inkscape-font-specification:Optien;text-align:center;text-anchor:middle;fill:#ffffff;stroke-width:0.264584" /><path
       d="m 182.90903,176.83885 h -3.83823 v -18.8913 h 3.83823 z"
       id="path311"
       style="font-size:29.9862px;font-family:Optien;-inkscape-font-specification:Optien;text-align:center;text-anchor:middle;fill:#ffffff;stroke-width:0.264584" /><path
       d="m 196.49277,175.27957 q -0.95956,0.74965 -2.12902,1.16946 -1.16947,0.38982 -2.45887,0.38982 -1.55928,0 -2.93865,-0.56974 -1.34938,-0.59972 -2.36891,-1.61925 -1.01953,-1.01953 -1.61925,-2.36891 -0.56974,-1.37937 -0.56974,-2.93865 0,-1.55928 0.56974,-2.90866 0.59972,-1.37936 1.61925,-2.3989 1.01953,-1.01953 2.36891,-1.58926 1.37937,-0.59973 2.93865,-0.59973 1.55928,0 2.90866,0.59973 1.37936,0.56973 2.3989,1.58926 1.01953,1.01954 1.58926,2.3989 0.59973,1.34938 0.59973,2.90866 0,0.47978 -0.06,0.92957 -0.06,0.4498 -0.14994,0.8696 h -10.46518 q 0.47978,0.83962 1.31939,1.34938 0.83962,0.50977 1.85915,0.50977 0.59972,0 1.13947,-0.17992 0.53976,-0.17992 0.98955,-0.50976 z m -4.58789,-9.59558 q -0.95956,0 -1.7392,0.44979 -0.77964,0.44979 -1.28941,1.16946 h 6.05721 q -0.50976,-0.71967 -1.2894,-1.16946 -0.77964,-0.44979 -1.7392,-0.44979 z"
       id="path313"
       style="font-size:29.9862px;font-family:Optien;-inkscape-font-specification:Optien;text-align:center;text-anchor:middle;fill:#ffffff;stroke-width:0.264584" /><path
       d="m 215.89381,169.79209 q -0.09,1.46933 -0.71966,2.75874 -0.59973,1.2894 -1.61926,2.24896 -1.01953,0.92957 -2.33892,1.49931 -1.3194,0.53975 -2.81871,0.53975 -1.55928,0 -2.93864,-0.56974 -1.34938,-0.59972 -2.36891,-1.61925 -1.01953,-1.01953 -1.61926,-2.36891 -0.56974,-1.37937 -0.56974,-2.93865 0,-1.55928 0.56974,-2.90866 0.59973,-1.37936 1.61926,-2.3989 1.01953,-1.01953 2.36891,-1.58926 1.37936,-0.59973 2.93864,-0.59973 1.49931,0 2.81871,0.56974 1.31939,0.53975 2.33892,1.49931 1.01953,0.92957 1.61926,2.21898 0.62971,1.28941 0.71966,2.75873 h -3.86822 q -0.0899,-0.6597 -0.4198,-1.25942 -0.29986,-0.59973 -0.77964,-1.01953 -0.47978,-0.41981 -1.10949,-0.6597 -0.62971,-0.26987 -1.3194,-0.26987 -0.74965,0 -1.43933,0.29986 -0.6597,0.26987 -1.16947,0.77964 -0.47977,0.47978 -0.77964,1.16946 -0.26987,0.6597 -0.26987,1.40935 0,0.74966 0.26987,1.43934 0.29987,0.6597 0.77964,1.16946 0.50977,0.47978 1.16947,0.77964 0.68968,0.26988 1.43933,0.26988 0.68969,0 1.3194,-0.23989 0.62971,-0.26988 1.10949,-0.68968 0.47978,-0.41981 0.77964,-0.98955 0.32985,-0.59972 0.4198,-1.28941 z"
       id="path315"
       style="font-size:29.9862px;font-family:Optien;-inkscape-font-specification:Optien;text-align:center;text-anchor:middle;fill:#ffffff;stroke-width:0.264584" /><path
       d="m 224.88965,176.83885 q -1.55928,0 -2.93864,-0.56974 -1.34938,-0.59972 -2.36891,-1.61925 -1.01953,-1.01953 -1.61926,-2.36891 -0.56974,-1.37937 -0.56974,-2.93865 v -11.39475 h 3.83824 v 3.8982 h 9.23575 v 3.83824 h -9.23575 v 3.65831 q 0,0.74966 0.26987,1.43934 0.29986,0.6597 0.77964,1.16946 0.50977,0.47978 1.16947,0.77964 0.68968,0.26988 1.43933,0.26988 0.74966,0 1.40935,-0.26988 0.68969,-0.29986 1.16947,-0.77964 0.50976,-0.50976 0.77964,-1.16946 0.29986,-0.68968 0.29986,-1.43934 h 3.83823 q 0,1.55928 -0.59972,2.93865 -0.56974,1.34938 -1.58927,2.36891 -1.01953,1.01953 -2.3989,1.61925 -1.34937,0.56974 -2.90866,0.56974 z"
       id="path317"
       style="font-size:29.9862px;font-family:Optien;-inkscape-font-specification:Optien;text-align:center;text-anchor:middle;fill:#ffffff;stroke-width:0.264584" /><path
       d="m 245.04036,169.3423 q 0,-0.74965 -0.29987,-1.40935 -0.26987,-0.68968 -0.77964,-1.16946 -0.47978,-0.50977 -1.16946,-0.77964 -0.6597,-0.29986 -1.40935,-0.29986 -0.74966,0 -1.43934,0.29986 -0.65969,0.26987 -1.16946,0.77964 -0.47978,0.47978 -0.77964,1.16946 -0.26988,0.6597 -0.26988,1.40935 v 7.49655 h -3.83823 v -7.49655 q 0,-1.55928 0.56974,-2.90866 0.59972,-1.37936 1.61925,-2.3989 1.01953,-1.01953 2.36891,-1.58926 1.37937,-0.59973 2.93865,-0.59973 1.55928,0 2.90866,0.59973 1.37937,0.56973 2.3989,1.58926 1.01953,1.01954 1.58927,2.3989 0.59972,1.34938 0.59972,2.90866 z"
       id="path319"
       style="font-size:29.9862px;font-family:Optien;-inkscape-font-specification:Optien;text-align:center;text-anchor:middle;fill:#ffffff;stroke-width:0.264584" /><path
       d="m 257.87443,161.84575 q 1.55928,0 2.90866,0.59973 1.37936,0.56973 2.39889,1.58926 1.01953,1.01954 1.58927,2.3989 0.59973,1.34938 0.59973,2.90866 0,1.55928 -0.59973,2.93865 -0.56974,1.34938 -1.58927,2.36891 -1.01953,1.01953 -2.39889,1.61925 -1.34938,0.56974 -2.90866,0.56974 -1.55929,0 -2.93865,-0.56974 -1.34938,-0.59972 -2.36891,-1.61925 -1.01953,-1.01953 -1.61926,-2.36891 -0.56973,-1.37937 -0.56973,-2.93865 0,-1.55928 0.56973,-2.90866 0.59973,-1.37936 1.61926,-2.3989 1.01953,-1.01953 2.36891,-1.58926 1.37936,-0.59973 2.93865,-0.59973 z m 0,11.15487 q 0.74965,0 1.40935,-0.26988 0.68968,-0.29986 1.16946,-0.77964 0.50976,-0.50976 0.77964,-1.16946 0.29986,-0.68968 0.29986,-1.43934 0,-0.74965 -0.29986,-1.40935 -0.26988,-0.68968 -0.77964,-1.16946 -0.47978,-0.50977 -1.16946,-0.77964 -0.6597,-0.29986 -1.40935,-0.29986 -0.74966,0 -1.43934,0.29986 -0.6597,0.26987 -1.16946,0.77964 -0.47978,0.47978 -0.77965,1.16946 -0.26987,0.6597 -0.26987,1.40935 0,0.74966 0.26987,1.43934 0.29987,0.6597 0.77965,1.16946 0.50976,0.47978 1.16946,0.77964 0.68968,0.26988 1.43934,0.26988 z"
       id="path321"
       style="font-size:29.9862px;font-family:Optien;-inkscape-font-specification:Optien;text-align:center;text-anchor:middle;fill:#ffffff;stroke-width:0.264584" /><path
       d="m 281.86337,176.83885 h -3.83823 v -7.49655 q 0,-0.74965 -0.29987,-1.40935 -0.26987,-0.68968 -0.77964,-1.16946 -0.47978,-0.50977 -1.16946,-0.77964 -0.6597,-0.29986 -1.40935,-0.29986 -0.74966,0 -1.43934,0.29986 -0.6597,0.26987 -1.16946,0.77964 -0.47978,0.47978 -0.77964,1.16946 -0.26988,0.6597 -0.26988,1.40935 v 7.49655 h -3.83823 v -7.49655 q 0,-1.55928 0.56974,-2.90866 0.59972,-1.37936 1.61925,-2.3989 1.01953,-1.01953 2.36891,-1.58926 1.37937,-0.59973 2.93865,-0.59973 1.55928,0 2.90866,0.59973 1.37937,0.56973 2.3989,1.58926 1.01953,1.01954 1.58926,2.3989 0.59973,1.34938 0.59973,2.90866 z"
       id="path323"
       style="font-size:29.9862px;font-family:Optien;-inkscape-font-specification:Optien;text-align:center;text-anchor:middle;fill:#ffffff;stroke-width:0.264584" /><path
       d="m 283.36265,161.84575 v -3.8982 h 3.83824 v 3.8982 z m 3.83824,0.95956 v 14.03354 h -3.83824 v -14.03354 z"
       id="path325"
       style="font-size:29.9862px;font-family:Optien;-inkscape-font-specification:Optien;text-align:center;text-anchor:middle;fill:#ffffff;stroke-width:0.264584" /><path
       d="m 303.69329,169.79209 q -0.09,1.46933 -0.71967,2.75874 -0.59973,1.2894 -1.61926,2.24896 -1.01953,0.92957 -2.33892,1.49931 -1.31939,0.53975 -2.8187,0.53975 -1.55929,0 -2.93865,-0.56974 -1.34938,-0.59972 -2.36891,-1.61925 -1.01953,-1.01953 -1.61926,-2.36891 -0.56973,-1.37937 -0.56973,-2.93865 0,-1.55928 0.56973,-2.90866 0.59973,-1.37936 1.61926,-2.3989 1.01953,-1.01953 2.36891,-1.58926 1.37936,-0.59973 2.93865,-0.59973 1.49931,0 2.8187,0.56974 1.31939,0.53975 2.33892,1.49931 1.01953,0.92957 1.61926,2.21898 0.62971,1.28941 0.71967,2.75873 h -3.86822 q -0.09,-0.6597 -0.41981,-1.25942 -0.29986,-0.59973 -0.77964,-1.01953 -0.47978,-0.41981 -1.10949,-0.6597 -0.62971,-0.26987 -1.31939,-0.26987 -0.74966,0 -1.43934,0.29986 -0.6597,0.26987 -1.16946,0.77964 -0.47978,0.47978 -0.77964,1.16946 -0.26988,0.6597 -0.26988,1.40935 0,0.74966 0.26988,1.43934 0.29986,0.6597 0.77964,1.16946 0.50976,0.47978 1.16946,0.77964 0.68968,0.26988 1.43934,0.26988 0.68968,0 1.31939,-0.23989 0.62971,-0.26988 1.10949,-0.68968 0.47978,-0.41981 0.77964,-0.98955 0.32985,-0.59972 0.41981,-1.28941 z"
       id="path327"
       style="font-size:29.9862px;font-family:Optien;-inkscape-font-specification:Optien;text-align:center;text-anchor:middle;fill:#ffffff;stroke-width:0.264584" /><path
       d="m 321.65499,157.94755 q 1.16946,0 2.15901,0.44979 1.01953,0.44979 1.76918,1.22943 0.77964,0.74966 1.19945,1.76919 0.44979,0.98954 0.44979,2.15901 0,1.13947 -0.4198,2.12902 -0.38982,0.95955 -1.07951,1.70921 0.68969,0.74965 1.07951,1.7392 0.4198,0.95956 0.4198,2.09903 0,1.16946 -0.44979,2.189 -0.41981,0.98954 -1.19945,1.76918 -0.74965,0.74966 -1.76918,1.19945 -0.98955,0.44979 -2.15901,0.44979 h -8.54607 v -3.62833 h 8.63603 q 0.71967,-0.11994 1.19945,-0.65969 0.50976,-0.56974 0.50976,-1.3194 0,-0.77964 -0.50976,-1.34938 -0.50977,-0.56973 -1.28941,-0.62971 h -8.54607 v -3.6883 h 8.39614 q 0.80963,-0.03 1.37937,-0.59972 0.56973,-0.56974 0.56973,-1.37937 0,-0.74965 -0.47978,-1.28941 -0.47978,-0.53975 -1.16946,-0.68968 h -8.696 v -3.65831 z"
       id="path329"
       style="font-size:29.9862px;font-family:Optien;-inkscape-font-specification:Optien;text-align:center;text-anchor:middle;fill:#ffffff;stroke-width:0.264584" /><path
       d="m 331.64039,163.40503 q 0.95956,-0.74965 2.12902,-1.13947 1.16946,-0.41981 2.45887,-0.41981 1.55928,0 2.90866,0.59973 1.37936,0.56973 2.39889,1.58926 1.01953,1.01954 1.58927,2.3989 0.59973,1.34938 0.59973,2.90866 0,1.55928 -0.59973,2.93865 -0.56974,1.34938 -1.58927,2.36891 -1.01953,1.01953 -2.39889,1.61925 -1.34938,0.56974 -2.90866,0.56974 -1.55929,0 -2.93865,-0.56974 -1.34938,-0.59972 -2.36891,-1.61925 -1.01953,-1.01953 -1.61926,-2.36891 -0.56973,-1.37937 -0.56973,-2.93865 0,-0.47978 0.06,-0.92957 0.06,-0.44979 0.14993,-0.8696 h 10.46518 q -0.47978,-0.83961 -1.31939,-1.34938 -0.83961,-0.50976 -1.85914,-0.50976 -0.59973,0 -1.13948,0.17991 -0.53975,0.17992 -0.98954,0.50977 z m 4.58789,9.59559 q 0.95955,0 1.7392,-0.41981 0.77964,-0.44979 1.2894,-1.19945 h -6.05721 q 0.50977,0.74966 1.28941,1.19945 0.77964,0.41981 1.7392,0.41981 z"
       id="path331"
       style="font-size:29.9862px;font-family:Optien;-inkscape-font-specification:Optien;text-align:center;text-anchor:middle;fill:#ffffff;stroke-width:0.264584" /><path
       d="m 352.72068,176.83885 q -1.55928,0 -2.93865,-0.56974 -1.34938,-0.59972 -2.36891,-1.61925 -1.01953,-1.01953 -1.61925,-2.36891 -0.56974,-1.37937 -0.56974,-2.93865 v -11.39475 h 3.83823 v 3.8982 h 9.23575 v 3.83824 h -9.23575 v 3.65831 q 0,0.74966 0.26988,1.43934 0.29986,0.6597 0.77964,1.16946 0.50976,0.47978 1.16946,0.77964 0.68968,0.26988 1.43934,0.26988 0.74965,0 1.40935,-0.26988 0.68968,-0.29986 1.16946,-0.77964 0.50977,-0.50976 0.77964,-1.16946 0.29986,-0.68968 0.29986,-1.43934 h 3.83824 q 0,1.55928 -0.59973,2.93865 -0.56973,1.34938 -1.58926,2.36891 -1.01954,1.01953 -2.3989,1.61925 -1.34938,0.56974 -2.90866,0.56974 z"
       id="path333"
       style="font-size:29.9862px;font-family:Optien;-inkscape-font-specification:Optien;text-align:center;text-anchor:middle;fill:#ffffff;stroke-width:0.264584" /><path
       d="m 376.70961,169.79209 q -0.0899,1.46933 -0.71967,2.75874 -0.59972,1.2894 -1.61925,2.24896 -1.01953,0.92957 -2.33892,1.49931 -1.3194,0.53975 -2.81871,0.53975 -1.55928,0 -2.93864,-0.56974 -1.34938,-0.59972 -2.36891,-1.61925 -1.01953,-1.01953 -1.61926,-2.36891 -0.56974,-1.37937 -0.56974,-2.93865 0,-1.55928 0.56974,-2.90866 0.59973,-1.37936 1.61926,-2.3989 1.01953,-1.01953 2.36891,-1.58926 1.37936,-0.59973 2.93864,-0.59973 1.49931,0 2.81871,0.56974 1.31939,0.53975 2.33892,1.49931 1.01953,0.92957 1.61925,2.21898 0.62972,1.28941 0.71967,2.75873 h -3.86822 q -0.0899,-0.6597 -0.4198,-1.25942 -0.29987,-0.59973 -0.77964,-1.01953 -0.47978,-0.41981 -1.10949,-0.6597 -0.62971,-0.26987 -1.3194,-0.26987 -0.74965,0 -1.43933,0.29986 -0.6597,0.26987 -1.16947,0.77964 -0.47978,0.47978 -0.77964,1.16946 -0.26987,0.6597 -0.26987,1.40935 0,0.74966 0.26987,1.43934 0.29986,0.6597 0.77964,1.16946 0.50977,0.47978 1.16947,0.77964 0.68968,0.26988 1.43933,0.26988 0.68969,0 1.3194,-0.23989 0.62971,-0.26988 1.10949,-0.68968 0.47977,-0.41981 0.77964,-0.98955 0.32985,-0.59972 0.4198,-1.28941 z"
       id="path335"
       style="font-size:29.9862px;font-family:Optien;-inkscape-font-specification:Optien;text-align:center;text-anchor:middle;fill:#ffffff;stroke-width:0.264584" /><path
       d="m 389.36377,169.3423 q 0,-0.74965 -0.29987,-1.40935 -0.26987,-0.68968 -0.77964,-1.16946 -0.47978,-0.50977 -1.16946,-0.77964 -0.6597,-0.29986 -1.40935,-0.29986 -0.74966,0 -1.43934,0.29986 -0.65969,0.26987 -1.16946,0.77964 -0.47978,0.47978 -0.77964,1.16946 -0.26988,0.6597 -0.26988,1.40935 v 7.49655 h -3.83823 v -18.8913 h 3.83823 v 4.85776 q 0.80963,-0.44979 1.7392,-0.68968 0.92957,-0.26988 1.91912,-0.26988 1.55928,0 2.90866,0.59973 1.37937,0.56973 2.3989,1.58926 1.01953,1.01954 1.58927,2.3989 0.59972,1.34938 0.59972,2.90866 v 7.49655 h -3.83823 z"
       id="path337"
       style="font-size:29.9862px;font-family:Optien;-inkscape-font-specification:Optien;text-align:center;text-anchor:middle;fill:#ffffff;stroke-width:0.264584" /><path
       d="m 418.48034,163.55497 q 0,1.13947 -0.41981,2.12902 -0.38982,0.95955 -1.0795,1.70921 0.68968,0.74965 1.0795,1.7392 0.41981,0.95956 0.41981,2.06905 v 5.6374 h -3.77826 v -5.6374 q 0,-0.80963 -0.56974,-1.37937 -0.56974,-0.56974 -1.37937,-0.59972 h -4.70783 v -3.68831 h 4.88775 q 0.74965,-0.06 1.25942,-0.62971 0.50977,-0.56973 0.50977,-1.34937 0,-0.74966 -0.50977,-1.28941 -0.47978,-0.56974 -1.19945,-0.68968 h -6.53699 v 15.26297 h -3.83823 v -18.8913 h 10.31525 q 1.13948,0 2.15901,0.44979 1.01953,0.44979 1.76918,1.22943 0.74966,0.74966 1.16946,1.76919 0.4498,0.98954 0.4498,2.15901 z"
       id="path339"
       style="font-size:29.9862px;font-family:Optien;-inkscape-font-specification:Optien;text-align:center;text-anchor:middle;fill:#ffffff;stroke-width:0.264584" /><path
       d="m 432.06404,175.27957 q -0.95955,0.74965 -2.12902,1.16946 -1.16946,0.38982 -2.45886,0.38982 -1.55929,0 -2.93865,-0.56974 -1.34938,-0.59972 -2.36891,-1.61925 -1.01953,-1.01953 -1.61926,-2.36891 -0.56973,-1.37937 -0.56973,-2.93865 0,-1.55928 0.56973,-2.90866 0.59973,-1.37936 1.61926,-2.3989 1.01953,-1.01953 2.36891,-1.58926 1.37936,-0.59973 2.93865,-0.59973 1.55928,0 2.90866,0.59973 1.37936,0.56973 2.39889,1.58926 1.01953,1.01954 1.58927,2.3989 0.59973,1.34938 0.59973,2.90866 0,0.47978 -0.06,0.92957 -0.06,0.4498 -0.14993,0.8696 H 424.2976 q 0.47978,0.83962 1.31939,1.34938 0.83961,0.50977 1.85915,0.50977 0.59972,0 1.13947,-0.17992 0.53975,-0.17992 0.98955,-0.50976 z m -4.58788,-9.59558 q -0.95956,0 -1.7392,0.44979 -0.77965,0.44979 -1.28941,1.16946 h 6.05721 q -0.50976,-0.71967 -1.2894,-1.16946 -0.77965,-0.44979 -1.7392,-0.44979 z"
       id="path341"
       style="font-size:29.9862px;font-family:Optien;-inkscape-font-specification:Optien;text-align:center;text-anchor:middle;fill:#ffffff;stroke-width:0.264584" /><path
       d="m 451.46511,169.79209 q -0.09,1.46933 -0.71967,2.75874 -0.59973,1.2894 -1.61926,2.24896 -1.01953,0.92957 -2.33892,1.49931 -1.31939,0.53975 -2.8187,0.53975 -1.55929,0 -2.93865,-0.56974 -1.34938,-0.59972 -2.36891,-1.61925 -1.01953,-1.01953 -1.61926,-2.36891 -0.56973,-1.37937 -0.56973,-2.93865 0,-1.55928 0.56973,-2.90866 0.59973,-1.37936 1.61926,-2.3989 1.01953,-1.01953 2.36891,-1.58926 1.37936,-0.59973 2.93865,-0.59973 1.49931,0 2.8187,0.56974 1.31939,0.53975 2.33892,1.49931 1.01953,0.92957 1.61926,2.21898 0.62971,1.28941 0.71967,2.75873 h -3.86822 q -0.09,-0.6597 -0.41981,-1.25942 -0.29986,-0.59973 -0.77964,-1.01953 -0.47978,-0.41981 -1.10949,-0.6597 -0.62971,-0.26987 -1.31939,-0.26987 -0.74966,0 -1.43934,0.29986 -0.6597,0.26987 -1.16946,0.77964 -0.47978,0.47978 -0.77964,1.16946 -0.26988,0.6597 -0.26988,1.40935 0,0.74966 0.26988,1.43934 0.29986,0.6597 0.77964,1.16946 0.50976,0.47978 1.16946,0.77964 0.68968,0.26988 1.43934,0.26988 0.68968,0 1.31939,-0.23989 0.62971,-0.26988 1.10949,-0.68968 0.47978,-0.41981 0.77964,-0.98955 0.32985,-0.59972 0.41981,-1.28941 z"
       id="path343"
       style="font-size:29.9862px;font-family:Optien;-inkscape-font-specification:Optien;text-align:center;text-anchor:middle;fill:#ffffff;stroke-width:0.264584" /><path
       d="m 460.46093,161.84575 q 1.55928,0 2.90866,0.59973 1.37936,0.56973 2.39889,1.58926 1.01954,1.01954 1.58927,2.3989 0.59973,1.34938 0.59973,2.90866 0,1.55928 -0.59973,2.93865 -0.56973,1.34938 -1.58927,2.36891 -1.01953,1.01953 -2.39889,1.61925 -1.34938,0.56974 -2.90866,0.56974 -1.55929,0 -2.93865,-0.56974 -1.34938,-0.59972 -2.36891,-1.61925 -1.01953,-1.01953 -1.61925,-2.36891 -0.56974,-1.37937 -0.56974,-2.93865 0,-1.55928 0.56974,-2.90866 0.59972,-1.37936 1.61925,-2.3989 1.01953,-1.01953 2.36891,-1.58926 1.37936,-0.59973 2.93865,-0.59973 z m 0,11.15487 q 0.74965,0 1.40935,-0.26988 0.68968,-0.29986 1.16946,-0.77964 0.50977,-0.50976 0.77964,-1.16946 0.29986,-0.68968 0.29986,-1.43934 0,-0.74965 -0.29986,-1.40935 -0.26987,-0.68968 -0.77964,-1.16946 -0.47978,-0.50977 -1.16946,-0.77964 -0.6597,-0.29986 -1.40935,-0.29986 -0.74966,0 -1.43934,0.29986 -0.6597,0.26987 -1.16946,0.77964 -0.47978,0.47978 -0.77964,1.16946 -0.26988,0.6597 -0.26988,1.40935 0,0.74966 0.26988,1.43934 0.29986,0.6597 0.77964,1.16946 0.50976,0.47978 1.16946,0.77964 0.68968,0.26988 1.43934,0.26988 z"
       id="path345"
       style="font-size:29.9862px;font-family:Optien;-inkscape-font-specification:Optien;text-align:center;text-anchor:middle;fill:#ffffff;stroke-width:0.264584" /><path
       d="m 480.61164,169.3423 q 0,-0.74965 -0.29986,-1.40935 -0.26987,-0.68968 -0.77964,-1.16946 -0.47978,-0.50977 -1.16946,-0.77964 -0.6597,-0.29986 -1.40935,-0.29986 -0.74966,0 -1.43934,0.29986 -0.6597,0.26987 -1.16946,0.77964 -0.47978,0.47978 -0.77964,1.16946 -0.26988,0.6597 -0.26988,1.40935 v 7.49655 h -3.83823 v -7.49655 q 0,-1.55928 0.56974,-2.90866 0.59972,-1.37936 1.61925,-2.3989 1.01953,-1.01953 2.36891,-1.58926 1.37937,-0.59973 2.93865,-0.59973 1.55928,0 2.90866,0.59973 1.37937,0.56973 2.3989,1.58926 1.01953,1.01954 1.58926,2.3989 0.59973,1.34938 0.59973,2.90866 z"
       id="path347"
       style="font-size:29.9862px;font-family:Optien;-inkscape-font-specification:Optien;text-align:center;text-anchor:middle;fill:#ffffff;stroke-width:0.264584" /><path
       d="m 485.94915,169.3423 q 0,-1.55928 0.56974,-2.90866 0.59972,-1.37936 1.61925,-2.3989 1.01953,-1.01953 2.36891,-1.58926 1.37937,-0.59973 2.93865,-0.59973 0.98954,0 1.91912,0.26988 0.92957,0.23989 1.7392,0.68968 v -4.85776 h 3.83823 v 11.39475 q 0,1.55928 -0.59972,2.93865 -0.56974,1.34938 -1.58927,2.36891 -1.01953,1.01953 -2.3989,1.61925 -1.34938,0.56974 -2.90866,0.56974 -1.55928,0 -2.93865,-0.56974 -1.34938,-0.59972 -2.36891,-1.61925 -1.01953,-1.01953 -1.61925,-2.36891 -0.56974,-1.37937 -0.56974,-2.93865 z m 3.83823,0 q 0,0.74966 0.26988,1.43934 0.29986,0.6597 0.77964,1.16946 0.50976,0.47978 1.16946,0.77964 0.68968,0.26988 1.43934,0.26988 0.74965,0 1.40935,-0.26988 0.68968,-0.29986 1.16946,-0.77964 0.50977,-0.50976 0.77964,-1.16946 0.29987,-0.68968 0.29987,-1.43934 0,-0.74965 -0.29987,-1.40935 -0.26987,-0.68968 -0.77964,-1.16946 -0.47978,-0.50977 -1.16946,-0.77964 -0.6597,-0.29986 -1.40935,-0.29986 -0.74966,0 -1.43934,0.29986 -0.6597,0.26987 -1.16946,0.77964 -0.47978,0.47978 -0.77964,1.16946 -0.26988,0.6597 -0.26988,1.40935 z"
       id="path349"
       style="font-size:29.9862px;font-family:Optien;-inkscape-font-specification:Optien;text-align:center;text-anchor:middle;fill:#ffffff;stroke-width:0.264584" /></g></svg>
