<?xml version="1.0" encoding="UTF-8" standalone="no"?>
<!-- Created with Inkscape (http://www.inkscape.org/) -->

<svg
   width="313.41232mm"
   height="312.37674mm"
   viewBox="0 0 313.4125 312.3774"
   version="1.1"
   id="svg21"
   xml:space="preserve"
   inkscape:version="1.2.2 (1:1.2.2+202305151915+b0a8486541)"
   sodipodi:docname="Isotipo.svg"
   inkscape:export-filename="Logo-my batch 5.png"
   inkscape:export-xdpi="96"
   inkscape:export-ydpi="96"
   xmlns:inkscape="http://www.inkscape.org/namespaces/inkscape"
   xmlns:sodipodi="http://sodipodi.sourceforge.net/DTD/sodipodi-0.dtd"
   xmlns="http://www.w3.org/2000/svg"
   xmlns:svg="http://www.w3.org/2000/svg"><sodipodi:namedview
     id="namedview23"
     pagecolor="#ffffff"
     bordercolor="#000000"
     borderopacity="0.25"
     inkscape:showpageshadow="2"
     inkscape:pageopacity="0.0"
     inkscape:pagecheckerboard="0"
     inkscape:deskcolor="#d1d1d1"
     inkscape:document-units="mm"
     showgrid="false"
     inkscape:zoom="0.3395313"
     inkscape:cx="976.34592"
     inkscape:cy="565.48542"
     inkscape:window-width="1366"
     inkscape:window-height="710"
     inkscape:window-x="0"
     inkscape:window-y="0"
     inkscape:window-maximized="1"
     inkscape:current-layer="layer1" /><defs
     id="defs18"><rect
       x="550.57507"
       y="90.926369"
       width="1841.9164"
       height="512.51849"
       id="rect357" /><rect
       x="550.57507"
       y="90.926369"
       width="1841.9164"
       height="512.51849"
       id="rect357-3" /><rect
       x="550.57507"
       y="90.926369"
       width="1841.9164"
       height="512.51849"
       id="rect357-3-7" /><rect
       x="190.80185"
       y="4.018558"
       width="17.823553"
       height="17.087212"
       id="rect1378" /></defs><g
     inkscape:label="Capa 1"
     inkscape:groupmode="layer"
     id="layer1"
     transform="translate(-63.045423,134.32137)"><rect
       style="fill:#252525;fill-opacity:1;stroke-width:0.652164"
       id="rect247-9-3-7"
       width="313.41299"
       height="312.37741"
       x="63.045044"
       y="-134.32137"
       ry="41.972515"
       inkscape:export-filename="Logo simbolo"
       inkscape:export-xdpi="96"
       inkscape:export-ydpi="96" /><path
       id="rect247-9-3-7-6"
       style="fill:#ffffff;stroke-width:0.616078"
       d="M 208.47712,-104.68401 81.287636,1.8279128 206.79399,160.13538 234.8561,162.21108 107.14982,3.2831572 220.0889,-92.20994 Z"
       sodipodi:nodetypes="ccccccc" /><path
       id="rect247-9-3-7-0"
       style="fill:#ffffff;stroke-width:0.616078"
       d="M 254.68821,-99.690052 127.2948,5.1525433 253.75285,162.21108 h 67.04348 c 21.96611,0 39.65049,-17.68286 39.65049,-39.64904 V 29.181432 Z"
       sodipodi:nodetypes="cccsscc" /><path
       id="path2182-3"
       style="font-size:293.333px;font-family:Optien;-inkscape-font-specification:Optien;text-align:center;text-anchor:middle;white-space:pre;fill:#252525;stroke-width:0.730134"
       d="m 156.40871,10.500556 16.48117,20.275979 35.49791,43.671358 20.67773,-16.807621 -35.49798,-43.671395 45.64886,-37.105365 c 2.99863,-1.517341 6.19431,-1.999459 9.58814,-1.445905 3.39383,0.553255 6.21648,2.214956 8.46794,4.984843 2.4316,2.991561 3.45146,6.395441 3.05745,10.211639 -0.3942,3.816347 -2.04281,6.9952782 -4.94429,9.5376121 L 229.24809,21.397421 245.86417,41.839339 272.8328,19.918141 c 3.06084,-2.119895 6.38859,-2.892778 9.98323,-2.318613 3.59467,0.574017 6.56316,2.302317 8.9047,5.183004 2.25149,2.769924 3.2911,5.972518 3.11876,9.608713 -0.15217,3.435281 -1.3777,6.455528 -3.6766,9.06022 l -84.12379,68.379295 16.34534,20.10881 83.62578,-67.974454 c 4.32113,-3.512373 7.63456,-7.584214 9.93996,-12.21813 2.4161,-4.723916 3.88299,-9.597253 4.40138,-14.618633 0.5393,-5.222256 0.099,-10.292451 -1.3219,-15.209542 -1.40022,-5.118004 -3.85556,-9.836936 -7.36786,-14.1580586 -3.42226,-4.2101742 -7.35115,-7.4583461 -11.78431,-9.7429901 -4.41231,-2.4855201 -9.01799,-4.0764181 -13.8178,-4.7748893 0.2969,-4.841302 -0.27533,-9.620731 -1.7171,-14.336983 -1.4208,-4.917128 -3.84173,-9.48091 -7.26399,-13.691196 -3.51233,-4.321011 -7.58618,-7.634666 -12.22006,-9.939996 -4.61319,-2.506282 -9.48649,-3.973097 -14.61867,-4.401451 -5.11146,-0.629305 -10.22563,-0.242585 -15.34363,1.157037 -5.0071,1.31014 -9.67093,3.720578 -13.99197,7.232914 L 177.08639,-6.30699 Z"
       sodipodi:nodetypes="ccccccsssccccssccccscscscccscccscc" /></g></svg>
